# This file uses centimeters as units for non-parametric coordinates.

mtllib Wall_lp.mtl
g default
v -0.491422 -1.561034 9.444388
v -0.400010 -1.569611 9.444388
v -0.400010 -1.561034 9.535800
v -0.400010 -1.469621 9.544377
v -0.491422 -1.469621 9.535800
v -0.500000 -1.469621 9.444388
v 0.491422 -1.561034 9.444388
v 0.500000 -1.469621 9.444388
v 0.491422 -1.469621 9.535800
v 0.400010 -1.469621 9.544377
v 0.400010 -1.561034 9.535800
v 0.400010 -1.569611 9.444388
v -0.491422 1.561033 9.444388
v -0.500000 1.469622 9.444388
v -0.491422 1.469622 9.535800
v -0.400010 1.469622 9.544377
v -0.400010 1.561033 9.535800
v -0.400010 1.569611 9.444388
v 0.491422 1.561033 9.444388
v 0.400010 1.569611 9.444388
v 0.400010 1.561033 9.535800
v 0.400010 1.469622 9.544377
v 0.491422 1.469622 9.535800
v 0.500000 1.469622 9.444388
v -0.491422 1.469622 -9.535800
v -0.500000 1.469622 -9.444388
v -0.491422 1.561033 -9.444388
v -0.400010 1.569611 -9.444388
v -0.400010 1.561033 -9.535800
v -0.400010 1.469622 -9.544377
v 0.491422 1.469622 -9.535800
v 0.400010 1.469622 -9.544377
v 0.400010 1.561033 -9.535800
v 0.400010 1.569611 -9.444388
v 0.491422 1.561033 -9.444388
v 0.500000 1.469622 -9.444388
v -0.491422 -1.561034 -9.444388
v -0.500000 -1.469621 -9.444388
v -0.491422 -1.469621 -9.535800
v -0.400010 -1.469621 -9.544377
v -0.400010 -1.561034 -9.535800
v -0.400010 -1.569611 -9.444388
v 0.491422 -1.561034 -9.444388
v 0.400010 -1.569611 -9.444388
v 0.400010 -1.561034 -9.535800
v 0.400010 -1.469621 -9.544377
v 0.491422 -1.469621 -9.535800
v 0.500000 -1.469621 -9.444388
v -0.487442 -1.557053 9.531820
v 0.487442 -1.557053 9.531820
v -0.487442 1.557053 9.531820
v 0.487442 1.557053 9.531820
v -0.487442 1.557053 -9.531820
v 0.487442 1.557053 -9.531820
v -0.487442 -1.557053 -9.531820
v 0.487442 -1.557053 -9.531820
v -0.491422 -0.412323 9.535800
v -0.400010 -0.412323 9.544377
v 0.400010 -0.412323 9.544377
v 0.491422 -0.412323 9.535800
v 0.500000 -0.412323 9.444388
v 0.500000 -0.412323 -9.444388
v 0.491422 -0.412323 -9.535800
v 0.400010 -0.412323 -9.544377
v -0.400010 -0.412323 -9.544377
v -0.491422 -0.412323 -9.535800
v -0.500000 -0.412323 -9.444388
v -0.500000 -0.412323 9.444388
vt 0.510044 0.894433
vt 0.501746 0.894962
vt 0.502681 0.627697
vt 0.510917 0.628228
vt 0.502343 0.897586
vt 0.510840 0.895811
vt 0.442767 0.169568
vt 0.176770 0.171901
vt 0.503263 0.625076
vt 0.511715 0.626851
vt 0.442418 0.177791
vt 0.177377 0.180209
vt 0.445409 0.170044
vt 0.443826 0.178567
vt 0.174146 0.172488
vt 0.175994 0.181034
vt 0.785379 0.895823
vt 0.777144 0.895291
vt 0.778016 0.629086
vt 0.786314 0.628557
vt 0.777744 0.904199
vt 0.776345 0.896668
vt 0.778664 0.620216
vt 0.777221 0.627709
vt 0.179933 0.454963
vt 0.445931 0.452630
vt 0.445324 0.444321
vt 0.180283 0.446740
vt 0.454342 0.444761
vt 0.446706 0.443497
vt 0.171236 0.447440
vt 0.178875 0.445963
vt 0.534770 0.895948
vt 0.535815 0.626831
vt 0.534706 0.897453
vt 0.535766 0.625323
vt 0.753291 0.627571
vt 0.752246 0.896688
vt 0.752295 0.898197
vt 0.753355 0.626067
vt 0.444238 0.202602
vt 0.176202 0.204991
vt 0.445745 0.202534
vt 0.446498 0.419539
vt 0.178463 0.421928
vt 0.174702 0.204954
vt 0.447998 0.419576
vt 0.176955 0.421996
vt 0.534367 0.905386
vt 0.752587 0.906168
vt 0.455911 0.419772
vt 0.453708 0.202143
vt 0.166789 0.204759
vt 0.535474 0.617352
vt 0.168992 0.422388
vt 0.753693 0.618133
vt 0.448666 0.002223
vt 0.531744 0.998008
vt 0.754772 0.997471
vt 0.878670 0.903839
vt 0.879011 0.901163
vt 0.876408 0.623120
vt 0.781632 0.526959
vt 0.756316 0.525511
vt 0.533288 0.526049
vt 0.409391 0.619680
vt 0.409050 0.622356
vt 0.411653 0.900399
vt 0.445983 0.001992
vt 0.506429 0.996560
vt 0.167073 0.012357
vt 0.002461 0.179228
vt 0.001755 0.204431
vt 0.006585 0.427189
vt 0.174035 0.622308
vt 0.176717 0.622539
vt 0.455628 0.612174
vt 0.620239 0.445303
vt 0.620946 0.420099
vt 0.616115 0.197342
vt 0.508158 0.527243
vt 0.510317 0.619320
vt 0.876062 0.620451
vt 0.785718 0.625933
vt 0.784797 0.898443
vt 0.509396 0.903303
vt 0.779902 0.996276
vt 0.411998 0.903068
vt 0.458294 0.611831
vt 0.448554 0.452042
vt 0.614820 0.172297
vt 0.451464 0.177091
vt 0.177292 0.454487
vt 0.168358 0.179770
vt 0.007881 0.452234
vt 0.164406 0.012700
vn -0.009610 -0.999954 0.000439
vn -0.093370 -0.995631 0.000185
vn -0.093370 -0.995631 -0.000185
vn -0.009610 -0.999954 -0.000439
vn -0.995636 -0.093327 0.000326
vn -0.999972 -0.007454 0.000438
vn -0.999972 -0.007454 -0.000438
vn -0.995636 -0.093327 -0.000326
vn -0.009419 -0.007264 0.999929
vn -0.006988 -0.091293 0.995800
vn 0.006988 -0.091293 0.995800
vn 0.009419 -0.007264 0.999929
vn -0.007067 -0.995801 0.091276
vn 0.009610 -0.999954 0.000439
vn 0.007067 -0.995801 0.091276
vn -1.000000 0.000000 0.000452
vn -0.995626 -0.000000 0.093426
vn -0.995717 0.003406 0.092391
vn -0.999991 0.004339 0.000444
vn -0.093422 0.000000 0.995627
vn -0.009622 0.000000 0.999954
vn -0.009505 0.004228 0.999946
vn -0.092542 0.002899 0.995705
vn 0.999972 -0.007454 0.000438
vn 0.995636 -0.093327 0.000326
vn 0.995636 -0.093327 -0.000326
vn 0.999972 -0.007454 -0.000438
vn 0.093370 -0.995631 0.000185
vn 0.009610 -0.999954 -0.000439
vn 0.093370 -0.995631 -0.000185
vn 0.009622 0.000000 0.999954
vn 0.093429 -0.000000 0.995626
vn 0.092552 0.002899 0.995704
vn 0.009504 0.004228 0.999946
vn 0.995626 0.000000 0.093427
vn 1.000000 0.000000 0.000452
vn 0.999991 0.004339 0.000444
vn 0.995717 0.003406 0.092391
vn -0.995635 0.093327 0.000326
vn -0.995635 0.093327 -0.000326
vn -0.999991 0.004339 -0.000444
vn -0.093372 0.995631 0.000185
vn -0.009610 0.999954 0.000439
vn -0.009610 0.999954 -0.000439
vn -0.093372 0.995631 -0.000185
vn -0.007067 0.995800 0.091277
vn 0.007067 0.995800 0.091277
vn 0.009610 0.999954 0.000439
vn -0.006988 0.091294 0.995800
vn 0.006988 0.091294 0.995800
vn 0.093372 0.995631 0.000185
vn 0.093372 0.995631 -0.000185
vn 0.009610 0.999954 -0.000439
vn 0.995635 0.093327 0.000326
vn 0.999991 0.004339 -0.000444
vn 0.995635 0.093327 -0.000326
vn -0.995717 0.003406 -0.092390
vn -0.995626 0.000000 -0.093426
vn -1.000000 0.000000 -0.000452
vn -0.092542 0.002899 -0.995705
vn -0.009503 0.004228 -0.999946
vn -0.009622 0.000000 -0.999954
vn -0.093425 0.000000 -0.995626
vn -0.006988 0.091294 -0.995800
vn 0.006988 0.091294 -0.995800
vn 0.009504 0.004228 -0.999946
vn -0.007067 0.995800 -0.091277
vn 0.007067 0.995800 -0.091277
vn 0.092532 0.002899 -0.995706
vn 0.093419 -0.000000 -0.995627
vn 0.009622 0.000000 -0.999954
vn 0.995717 0.003406 -0.092390
vn 1.000000 0.000000 -0.000452
vn 0.995626 0.000000 -0.093426
vn -0.007067 -0.995801 -0.091276
vn 0.007067 -0.995801 -0.091276
vn -0.006988 -0.091293 -0.995800
vn -0.009421 -0.007264 -0.999929
vn 0.009419 -0.007264 -0.999929
vn 0.006988 -0.091293 -0.995800
vn -0.995774 -0.005846 0.091647
vn -0.994882 -0.071452 0.071452
vn -0.071451 -0.994882 0.071450
vn -0.091898 -0.005003 0.995756
vn -0.071455 -0.071447 0.994882
vn 0.071451 -0.994882 0.071450
vn 0.995774 -0.005846 0.091648
vn 0.994882 -0.071452 0.071451
vn 0.091899 -0.005003 0.995756
vn 0.071457 -0.071447 0.994882
vn -0.071451 0.994882 0.071451
vn -0.994882 0.071452 0.071451
vn -0.071457 0.071447 0.994881
vn 0.994882 0.071452 0.071451
vn 0.071451 0.994882 0.071452
vn 0.071456 0.071447 0.994882
vn -0.071456 0.071447 -0.994882
vn -0.994882 0.071452 -0.071451
vn -0.071451 0.994882 -0.071452
vn 0.994882 0.071452 -0.071451
vn 0.071457 0.071447 -0.994881
vn 0.071451 0.994882 -0.071451
vn -0.071451 -0.994882 -0.071450
vn -0.995774 -0.005846 -0.091649
vn -0.994882 -0.071452 -0.071451
vn -0.091907 -0.005003 -0.995755
vn -0.071457 -0.071447 -0.994882
vn 0.995774 -0.005846 -0.091648
vn 0.994882 -0.071452 -0.071452
vn 0.071451 -0.994882 -0.071450
vn 0.091907 -0.005003 -0.995755
vn 0.071455 -0.071447 -0.994882
s 1
g pCube1_low
usemtl initialShadingGroup
f 2/33/1 1/1/2 37/4/3 42/34/4
s 2
f 1/1/5 6/2/6 38/3/7 37/4/8
s 3
f 4/49/9 3/35/10 11/39/11 10/50/12
s 1
f 3/35/13 2/33/1 12/38/14 11/39/15
s 2
f 68/69/16 57/57/17 15/13/18 14/7/19
s 3
f 57/91/20 58/80/21 16/52/22 15/92/23
s 6
f 8/17/24 7/18/25 43/19/26 48/20/27
s 1
f 7/18/28 12/38/14 44/37/29 43/19/30
s 3
f 59/79/31 60/78/32 23/29/33 22/51/34
s 6
f 60/89/35 61/77/36 24/26/37 23/90/38
s 2
f 14/7/19 13/11/39 27/12/40 26/8/41
s 9
f 13/11/42 18/41/43 28/42/44 27/12/45
f 18/41/43 17/43/46 21/47/47 20/44/48
s 3
f 17/43/49 16/52/22 22/51/34 21/47/50
s 9
f 20/44/48 19/27/51 35/28/52 34/45/53
s 6
f 19/27/54 24/26/37 36/25/55 35/28/56
s 2
f 26/8/41 25/15/57 66/96/58 67/71/59
s 10
f 25/94/60 30/53/61 65/73/62 66/72/63
f 30/53/61 29/46/64 33/48/65 32/55/66
s 9
f 29/46/67 28/42/44 34/45/53 33/48/68
s 10
f 32/55/66 31/31/69 63/95/70 64/74/71
s 6
f 31/93/72 36/25/55 62/76/73 63/75/74
s 1
f 42/34/4 41/36/75 45/40/76 44/37/29
s 10
f 41/36/77 40/54/78 46/56/79 45/40/80
s 3
f 58/80/21 59/79/31 22/51/34 16/52/22
s 9
f 18/41/43 20/44/48 34/45/53 28/42/44
s 10
f 30/53/61 32/55/66 64/74/71 65/73/62
s 1
f 42/34/4 44/37/29 12/38/14 2/33/1
s 6
f 61/77/36 62/76/73 36/25/55 24/26/37
s 2
f 67/71/59 68/69/16 14/7/19 26/8/41
f 5/5/81 6/2/6 1/1/5 49/6/82
s 1
f 1/1/2 2/33/1 3/35/13 49/6/83
s 3
f 3/35/10 4/49/9 5/86/84 49/6/85
s 1
f 11/39/15 12/38/14 7/18/28 50/22/86
s 6
f 7/18/25 8/17/24 9/85/87 50/22/88
s 3
f 9/21/89 10/50/12 11/39/11 50/22/90
s 9
f 17/43/46 18/41/43 13/11/42 51/14/91
s 2
f 13/11/39 14/7/19 15/13/18 51/14/92
s 3
f 15/92/23 16/52/22 17/43/49 51/14/93
s 6
f 23/90/38 24/26/37 19/27/54 52/30/94
s 9
f 19/27/51 20/44/48 21/47/47 52/30/95
s 3
f 21/47/50 22/51/34 23/29/33 52/30/96
s 10
f 29/46/64 30/53/61 25/94/60 53/16/97
s 2
f 25/15/57 26/8/41 27/12/40 53/16/98
s 9
f 27/12/45 28/42/44 29/46/67 53/16/99
s 6
f 35/28/56 36/25/55 31/93/72 54/32/100
s 10
f 31/31/69 32/55/66 33/48/65 54/32/101
s 9
f 33/48/68 34/45/53 35/28/52 54/32/102
s 1
f 41/36/75 42/34/4 37/4/3 55/10/103
s 2
f 37/4/8 38/3/7 39/9/104 55/10/105
s 10
f 39/82/106 40/54/78 41/36/77 55/10/107
s 6
f 47/84/108 48/20/27 43/19/26 56/24/109
s 1
f 43/19/30 44/37/29 45/40/76 56/24/110
s 10
f 45/40/80 46/56/79 47/23/111 56/24/112
s 3
f 5/86/84 4/49/9 58/58/21 57/70/20
f 4/49/9 10/50/12 59/59/31 58/58/21
f 10/50/12 9/21/89 60/87/32 59/59/31
s 6
f 9/85/87 8/17/24 61/61/36 60/60/35
f 8/17/24 48/20/27 62/62/73 61/61/36
f 63/83/74 62/62/73 48/20/27 47/84/108
s 10
f 64/64/71 63/63/70 47/23/111 46/56/79
f 65/65/62 64/64/71 46/56/79 40/54/78
f 66/81/63 65/65/62 40/54/78 39/82/106
s 2
f 67/67/59 66/66/58 39/9/104 38/3/7
f 38/3/7 6/2/6 68/68/16 67/67/59
f 6/2/6 5/5/81 57/88/17 68/68/16
